HIERARCHY
ROOT Hips
{
	OFFSET 0.000000 0.000000 0.000000
	CHANNELS 6 Xposition Yposition Zposition Xrotation Yrotation Zrotation
	JOINT Chest
	{
		OFFSET 0.000000 0.009282 11.569106
		CHANNELS 3 Xrotation Yrotation Zrotation
		JOINT Chest2
		{
			OFFSET 0.000000 -0.016863 9.269641
			CHANNELS 3 Xrotation Yrotation Zrotation
			JOINT Chest3
			{
				OFFSET 0.000000 0.000000 8.374491
				CHANNELS 3 Xrotation Yrotation Zrotation
				JOINT Chest4
				{
					OFFSET 0.000000 0.000000 8.374493
					CHANNELS 3 Xrotation Yrotation Zrotation
					JOINT Neck
					{
						OFFSET 0.000000 -0.000001 12.152554
						CHANNELS 3 Xrotation Yrotation Zrotation
						JOINT Head
						{
							OFFSET 0.000000 -0.040100 7.802319
							CHANNELS 3 Xrotation Yrotation Zrotation
							End Site
							{
								OFFSET 0.000000 -0.020946 14.853096
							}
						}
					}
					JOINT RightCollar
					{
						OFFSET -2.894404 0.000000 6.791374
						CHANNELS 3 Xrotation Yrotation Zrotation
						JOINT RightShoulder
						{
							OFFSET -13.574684 0.000000 0.000000
							CHANNELS 3 Xrotation Yrotation Zrotation
							JOINT RightElbow
							{
								OFFSET -23.923903 0.000000 0.000000
								CHANNELS 3 Xrotation Yrotation Zrotation
								JOINT RightWrist
								{
									OFFSET -19.846718 -0.012765 0.000000
									CHANNELS 3 Xrotation Yrotation Zrotation
									End Site
									{
										OFFSET -14.973145 0.000000 0.000000
									}
								}
							}
						}
					}
					JOINT LeftCollar
					{
						OFFSET 2.894404 0.000000 6.791374
						CHANNELS 3 Xrotation Yrotation Zrotation
						JOINT LeftShoulder
						{
							OFFSET 13.574684 0.000000 0.000000
							CHANNELS 3 Xrotation Yrotation Zrotation
							JOINT LeftElbow
							{
								OFFSET 23.923903 0.000000 0.000000
								CHANNELS 3 Xrotation Yrotation Zrotation
								JOINT LeftWrist
								{
									OFFSET 19.846718 -0.012765 0.000000
									CHANNELS 3 Xrotation Yrotation Zrotation
									End Site
									{
										OFFSET 14.973145 0.000000 0.000000
									}
								}
							}
						}
					}
				}
			}
		}
	}
	JOINT RightHip
	{
		OFFSET -9.469263 -0.004642 0.045487
		CHANNELS 3 Xrotation Yrotation Zrotation
		JOINT RightKnee
		{
			OFFSET 0.000000 -0.002666 -40.478676
			CHANNELS 3 Xrotation Yrotation Zrotation
			JOINT RightAnkle
			{
				OFFSET 0.000000 -0.049110 -35.224068
				CHANNELS 3 Xrotation Yrotation Zrotation
				JOINT RightToe
				{
					OFFSET 0.000000 -12.539530 -6.151390
					CHANNELS 3 Xrotation Yrotation Zrotation
					End Site
					{
						OFFSET 0.000000 -5.044995 -1.291870
					}
				}
			}
		}
	}
	JOINT LeftHip
	{
		OFFSET 9.469263 -0.004642 0.045487
		CHANNELS 3 Xrotation Yrotation Zrotation
		JOINT LeftKnee
		{
			OFFSET 0.000000 -0.002666 -40.478676
			CHANNELS 3 Xrotation Yrotation Zrotation
			JOINT LeftAnkle
			{
				OFFSET 0.000000 -0.049110 -35.224068
				CHANNELS 3 Xrotation Yrotation Zrotation
				JOINT LeftToe
				{
					OFFSET 0.000000 -12.539530 -6.151390
					CHANNELS 3 Xrotation Yrotation Zrotation
					End Site
					{
						OFFSET 0.000000 -5.044995 -1.291870
					}
				}
			}
		}
	}
}
MOTION
Frames: 14
Frame Time: 0.016667
84.287354 -77.202316 83.152489 2.038263 4.253870 -110.938603 3.992783 1.042549 0.079433 1.770427 0.427413 0.053888 1.770427 0.427413 0.053889 1.327852 0.320407 0.041654 21.305337 -2.713250 -2.920694 3.304684 -4.121573 -6.132600 -5.868119 -9.141792 -2.814485 24.925073 -43.979120 4.769085 59.976287 0.980350 61.103986 -47.493632 21.293863 87.214931 -4.290155 6.581546 -3.929892 10.494726 44.078858 4.304658 63.099651 22.668090 -55.356928 -19.658085 -16.021165 -64.467376 10.238918 -2.157872 -10.705408 22.407185 -6.428116 -2.270352 6.978380 -4.987212 17.122683 -32.317815 18.992246 5.496278 4.608305 7.618340 7.628542 2.080638 3.397228 2.181979 0.753710 -5.398141 4.563594 0.169706 -0.046753 0.099597 
84.287354 -77.202316 83.152489 2.038263 4.253870 -110.938603 3.992783 1.042549 0.079433 1.770427 0.427413 0.053888 1.770427 0.427413 0.053889 1.327852 0.320407 0.041654 21.305337 -2.713250 -2.920694 3.304684 -4.121573 -6.132600 -5.868119 -9.141792 -2.814485 24.925073 -43.979120 4.769085 59.976287 0.980350 61.103986 -47.493632 21.293863 87.214931 -4.290155 6.581546 -3.929892 10.494726 44.078858 4.304658 63.099651 22.668090 -55.356928 -19.658085 -16.021165 -64.467376 10.238918 -2.157872 -10.705408 22.407185 -6.428116 -2.270352 6.978380 -4.987212 17.122683 -32.317815 18.992246 5.496278 4.608305 7.618340 7.628542 2.080638 3.397228 2.181979 0.753710 -5.398141 4.563594 0.169706 -0.046753 0.099597 
84.217628 -77.185593 83.122437 2.038567 4.288112 -110.928815 4.019561 1.057525 0.077595 1.781003 0.434483 0.058671 1.781003 0.434483 0.058675 1.335788 0.325693 0.045270 21.473281 -2.750660 -2.911343 3.614655 -4.200005 -6.120667 -5.954173 -9.155485 -2.854885 24.963891 -43.980274 4.764210 59.943325 0.977450 61.094724 -47.473278 21.290681 87.209645 -4.374320 6.585677 -3.910936 10.534853 44.075279 4.308819 63.055917 22.647174 -55.379959 -19.617039 -16.014832 -64.456768 10.153051 -2.064181 -10.685317 22.759287 -6.500489 -2.344141 6.994521 -5.054808 17.294652 -32.521495 19.141218 5.589388 4.658650 7.620011 7.592449 2.165186 3.415789 2.097498 0.625525 -5.406158 4.603220 0.168504 -0.046227 0.112953 
84.152679 -77.170074 83.092087 2.026749 4.318309 -110.901870 4.045051 1.086733 0.066580 1.795493 0.442796 0.063361 1.795493 0.442796 0.063364 1.346659 0.331915 0.048825 21.597004 -2.791747 -2.909639 3.842217 -4.281006 -6.125125 -6.053879 -9.180094 -2.902554 24.968866 -43.974308 4.721068 59.927998 0.971221 61.095858 -47.438109 21.286336 87.191019 -4.441868 6.571581 -3.899206 10.509224 44.074920 4.330149 63.064844 22.622843 -55.400682 -19.588749 -16.006994 -64.435103 10.040467 -1.947287 -10.674074 23.144041 -6.600797 -2.496699 7.018706 -5.155084 17.473620 -32.753281 19.299280 5.679607 4.669744 7.636345 7.533369 2.299547 3.417814 2.087626 0.480656 -5.394488 4.652030 0.158636 -0.054426 0.115635 
84.087372 -77.158478 83.062935 2.006309 4.356228 -110.869960 4.093566 1.128833 0.052585 1.818426 0.451747 0.071396 1.818426 0.451747 0.071397 1.363867 0.338602 0.054900 21.668037 -2.836194 -2.919085 3.971715 -4.362707 -6.152727 -6.120058 -9.182356 -2.964725 24.916248 -43.998419 4.690750 59.931242 0.982897 61.082102 -47.395608 21.285098 87.179455 -4.490942 6.539601 -3.911868 10.424296 44.073664 4.359693 63.104425 22.626383 -55.434635 -19.567140 -16.024575 -64.432159 9.921640 -1.821643 -10.696162 23.555557 -6.688137 -2.699162 7.029767 -5.322220 17.626878 -32.999673 19.460768 5.774714 4.663311 7.674915 7.448348 2.470333 3.402913 2.129895 0.317927 -5.380852 4.679383 0.149825 -0.059065 0.112138 
84.021240 -77.153763 83.033997 1.979288 4.403022 -110.857570 4.165866 1.177110 0.046018 1.851237 0.462982 0.080785 1.851237 0.462983 0.080782 1.388482 0.346996 0.061988 21.673947 -2.876984 -2.935946 3.980347 -4.432797 -6.195162 -6.204756 -9.177723 -3.013860 24.889662 -44.032017 4.694444 59.924494 1.014563 61.056844 -47.358732 21.285772 87.162517 -4.570252 6.513559 -3.926282 10.392281 44.061516 4.371389 63.114732 22.643674 -55.486165 -19.538480 -16.047680 -64.437999 9.790512 -1.649304 -10.741509 24.010055 -6.805539 -2.879146 7.050093 -5.476014 17.794637 -33.269032 19.624390 5.872822 4.658132 7.725006 7.358270 2.651009 3.391669 2.161936 0.160782 -5.371125 4.697382 0.136744 -0.061868 0.105178 
83.945023 -77.156303 83.007271 1.936143 4.465283 -110.836096 4.241428 1.240835 0.019168 1.881757 0.475066 0.088313 1.881757 0.475066 0.088309 1.411377 0.356031 0.067702 21.662181 -2.911525 -2.953393 3.956471 -4.490511 -6.237502 -6.219177 -9.178740 -3.048921 24.901386 -44.035350 4.756113 59.894086 1.051720 61.047835 -47.349883 21.295140 87.156226 -4.583547 6.478924 -3.920289 10.380572 44.063111 4.357362 63.074714 22.637062 -55.541370 -19.510321 -16.063982 -64.450799 9.663025 -1.431386 -10.838315 24.483008 -6.945603 -2.945507 7.120788 -5.484565 18.019216 -33.580222 19.758260 5.971080 4.671209 7.793590 7.232326 2.828088 3.400034 2.236188 -0.000809 -5.346878 4.688294 0.124095 -0.088958 0.121986 
83.856537 -77.159523 82.985733 1.903372 4.527665 -110.848369 4.310961 1.288873 0.011267 1.905807 0.489531 0.096701 1.905807 0.489531 0.096706 1.429424 0.366851 0.074057 21.662751 -2.940381 -2.970942 3.955815 -4.538344 -6.277965 -6.111470 -9.185299 -3.062045 24.898915 -44.027331 4.872079 59.835374 1.077549 61.039591 -47.350625 21.304497 87.165365 -4.487401 6.437658 -3.915162 10.293485 44.081843 4.359745 63.021165 22.592329 -55.596104 -19.493022 -16.076409 -64.467055 9.561097 -1.214257 -11.014555 24.941725 -7.067450 -2.842016 7.168178 -5.607426 17.951593 -33.919286 19.864622 6.066311 4.703001 7.849709 7.137203 2.981421 3.421771 2.368349 -0.133774 -5.292096 4.663605 0.090927 -0.136119 0.120398 
83.758209 -77.155708 82.971214 1.858122 4.591592 -110.868047 4.387713 1.339035 0.007427 1.932980 0.509076 0.106623 1.932982 0.509076 0.106613 1.449814 0.381475 0.081573 21.680023 -2.970057 -2.985996 3.986135 -4.589122 -6.313439 -6.016840 -9.185167 -3.089483 24.909813 -44.025688 5.031674 59.793368 1.085790 61.013472 -47.358554 21.312787 87.185562 -4.418271 6.391261 -3.922731 10.177903 44.105496 4.385537 62.992547 22.539197 -55.652013 -19.480224 -16.080162 -64.486985 9.449214 -0.974416 -11.218861 25.420405 -7.196555 -2.733181 7.267383 -5.522929 18.017100 -34.307016 19.891912 6.167170 4.737289 7.909812 7.080938 3.134713 3.443874 2.539825 -0.250597 -5.153197 4.611392 0.042523 -0.230551 0.119741 
83.660667 -77.144135 82.965118 1.787626 4.638256 -110.878429 4.457736 1.398523 -0.000874 1.961798 0.535603 0.114561 1.961798 0.535603 0.114560 1.471439 0.401340 0.087642 21.689727 -3.002872 -2.995449 4.002231 -4.646898 -6.339852 -6.028464 -9.191575 -3.137883 24.975043 -44.028123 5.193080 59.774448 1.074663 60.966221 -47.357018 21.318813 87.202876 -4.461538 6.359844 -3.929756 10.125254 44.093420 4.418205 62.989494 22.522540 -55.721619 -19.443966 -16.089429 -64.511424 9.311407 -0.742172 -11.387446 25.888582 -7.376463 -2.603947 7.378617 -5.366868 17.833996 -34.769969 19.805500 6.262529 4.735548 7.971266 7.061755 3.310530 3.459576 2.720623 -0.346132 -4.900736 4.518581 -0.019741 -0.378056 0.115163 
83.569046 -77.123756 82.970001 1.686731 4.672533 -110.841218 4.495187 1.471857 -0.049409 1.981645 0.564363 0.117456 1.981645 0.564363 0.117462 1.486334 0.422897 0.089928 21.704760 -3.032834 -2.999604 4.028391 -4.701191 -6.355548 -6.039376 -9.200504 -3.174580 25.034878 -44.038475 5.318749 59.771600 1.069285 60.899742 -47.352230 21.324378 87.220566 -4.510473 6.355376 -3.923192 10.108457 44.028448 4.438673 63.030051 22.527274 -55.818488 -19.423912 -16.097829 -64.543232 9.145871 -0.523304 -11.559731 26.320484 -7.535368 -2.469294 7.565838 -5.062120 17.663675 -35.282203 19.639418 6.340745 4.689779 8.025189 7.044944 3.545980 3.473019 2.869206 -0.460436 -4.533157 4.329403 -0.065798 -0.569769 0.131376 
83.483131 -77.081177 82.984451 1.609607 4.698507 -110.820591 4.519266 1.523083 -0.074458 1.995547 0.591966 0.111987 1.995547 0.591966 0.111986 1.496756 0.443614 0.085919 21.731891 -3.056469 -2.996200 4.077440 -4.746602 -6.355074 -6.003493 -9.206473 -3.185891 25.050858 -44.067670 5.404161 59.759777 1.077235 60.826311 -47.323977 21.328065 87.221222 -4.526582 6.359393 -3.897410 10.103618 43.939515 4.438925 63.092438 22.544018 -55.934328 -19.410016 -16.109450 -64.583291 8.977725 -0.382008 -11.646462 26.723142 -7.674876 -2.468219 7.847102 -4.596454 17.610145 -35.870466 19.410908 6.410886 4.628644 8.038049 7.043702 3.801592 3.499461 2.992358 -0.551489 -4.132489 4.265651 -0.120908 -0.741279 0.124983 
83.390274 -77.040985 83.004822 1.529704 4.742919 -110.783414 4.547788 1.591508 -0.106722 2.008539 0.615598 0.104157 2.008537 0.615598 0.104158 1.506496 0.461362 0.080146 21.767350 -3.074423 -3.000368 4.142272 -4.779851 -6.366490 -5.959764 -9.204233 -3.204726 25.049102 -44.107606 5.471750 59.750802 1.081060 60.760495 -47.279270 21.338928 87.211605 -4.521064 6.356504 -3.873966 10.132629 43.857536 4.409790 63.147127 22.560379 -56.046654 -19.432240 -16.144831 -64.649400 8.817079 -0.248255 -11.667198 27.123738 -7.828072 -2.672083 8.147473 -4.232597 17.488368 -36.512579 19.156905 6.473994 4.592760 8.073538 6.991836 4.050741 3.499703 3.147323 -0.621026 -3.730450 4.193007 -0.177599 -0.863109 0.091992 
83.281197 -76.997169 83.027756 1.467008 4.807523 -110.751046 4.585856 1.662030 -0.129770 2.019109 0.633332 0.098066 2.019109 0.633332 0.098066 1.514417 0.474681 0.075645 21.815551 -3.090162 -3.014727 4.230863 -4.806762 -6.395422 -5.914635 -9.197070 -3.227847 25.045088 -44.157958 5.519396 59.729881 1.097882 60.705068 -47.215370 21.349397 87.184120 -4.464706 6.337699 -3.874249 10.148974 43.816220 4.388776 63.156232 22.566180 -56.128210 -19.429187 -16.184550 -64.696658 8.687494 -0.121410 -11.669542 27.525268 -7.972293 -2.968805 8.472425 -3.971339 17.345880 -37.198744 18.916791 6.535452 4.603179 8.123763 6.926465 4.267954 3.475693 3.336437 -0.675844 -3.353840 4.115609 -0.227774 -0.931846 0.070770 
